<svg xmlns="http://www.w3.org/2000/svg" viewBox="0 0 1766.56 314.41"><defs><style>.cls-1{fill:#004e89;}.cls-2{fill:#d36582;}</style></defs><g id="Calque_2" data-name="Calque 2"><g id="Calque_1-2" data-name="Calque 1"><path class="cls-1" d="M204.13,35.51c0,1.52-.76,4.57-3.06,12.2L124.39,311.36c-3.44,0-9.16-2.29-13-5-7.2-5-13.73-9.9-13.73-14.88A84.63,84.63,0,0,1,100,277.79l1.54-5c-17.94,23.66-37.4,39.69-53,39.69-8,0-18.32-4.21-27.48-10.31C6.11,291.9,0,280.07,0,263.67,0,201.09,89.66,79,124.39,79c6.1,0,12.21,3.81,22.12,18.32a31.07,31.07,0,0,1,3.05,4.57l24.05-82.41C180.47,19.86,204.13,29.38,204.13,35.51Zm-74,82.79a28.91,28.91,0,0,0-.37-5.73c-43.12,34.35-95,116-95.39,170.56C77.07,281.22,130.1,168.28,130.1,118.3Z"/><path class="cls-1" d="M319.73,209.11a12.7,12.7,0,0,1-1.53,5.34L306,241.54c-6.49,14.11-12.61,27.47-12.61,43.87l-18.3,21a48.29,48.29,0,0,1-15.66-18.7C245.32,303,231.2,312.51,219,312.51c-8,0-18.31-4.21-27.47-10.31-7.25-4.95-12.61-10.68-16-16.79-21.75,21.75-34.34,27.86-46.55,27.86-6.1,0-11.83-3.06-17.55-6.87-3.82-2.7-6.87-6.87-7.64-9.9,5-1.91,25.57-11.83,46.55-30.14a195.24,195.24,0,0,0,23.28-25.57C190,175.15,264,79,294.93,79c6.11,0,12.21,3.81,22.13,18.32,10.3,15.25,12.21,24,12.21,34.71,0,19.08-6.11,42.74-15.64,66.77l.37.77C317.82,203.39,319.73,206.78,319.73,209.11ZM300.65,118.3a28.91,28.91,0,0,0-.38-5.73c-42.73,34.35-95,116-95.39,170.56C247.64,281.22,300.65,168.28,300.65,118.3Z"/><path class="cls-1" d="M519.65,159.51l-35.86,99.58c-4.58,13-11.06,29.72-17.93,53-5-1.14-11.45-3.43-14.88-5.72-12.61-8.78-13-9.15-13-12.21,0-1.53.77-4.58,1.91-8.4l30.91-89.27c-33.19,35.12-55.71,66.77-79,117.89-7.63-.76-29-9.91-29-16,0-1.53.76-4.58,3.05-12.21q10.31-36,21.75-72.11c-33.57,51.51-74.4,99.2-96.53,99.2-3.06,0-7.21-.76-16-6.87-3.82-2.7-6.49-5.72-7.63-10.3,3-1.91,11.06-6.1,26.32-19.08,42-37,124-163.68,136.21-194.59,6.87.38,28.62,9.91,28.62,16,0,1.52-.38,4.58-3.06,12.21q-14.88,44.07-28.61,88.13c27.47-33.19,57.23-60.66,72.87-72.49,8.78,1.53,19.82,8.77,23.28,13.36C525.38,142.72,525.38,143.86,519.65,159.51Z"/><path class="cls-1" d="M632.21,313.27c-5,0-10.68-2.29-17.55-6.87A48.27,48.27,0,0,1,599,287.7c-14.12,15.26-28.23,24.81-40.44,24.81-8,0-18.31-4.21-27.47-10.31-7.21-4.95-12.61-10.68-16-16.79-21.75,21.75-34.35,27.86-46.55,27.86-6.1,0-11.83-3.06-17.56-6.87-3.81-2.7-6.86-6.87-7.63-9.9,5-1.91,25.57-11.83,46.55-30.14a195.24,195.24,0,0,0,23.28-25.57C529.58,175.15,603.6,79,634.5,79c6.11,0,12.21,3.81,22.13,18.32,10.3,15.25,12.21,24,12.21,34.71,0,19.08-6.11,42.74-15.64,66.77l.37.77c3.82,3.82,5.73,7.2,5.73,9.54a12.7,12.7,0,0,1-1.53,5.34l-12.21,27.09c-5.3,11.83-10.71,23.27-12.2,36.62,18.31-8.39,37.77-26.7,48.83-46.92,11.45,5.72,18.7,11.06,20.61,14.88C711.57,264,651.29,313.27,632.21,313.27Zm8-195a29.68,29.68,0,0,0-.38-5.73c-42.78,34.35-95.08,116-95.43,170.56C587.19,281.22,640.26,168.28,640.26,118.3Z"/><path class="cls-1" d="M1237.38,231.23a115.46,115.46,0,0,1-40.07,42.32l5.34-14.49,35.87-99.59c5.72-15.64,5.72-16.79,3.43-19.81-3.43-4.58-14.5-11.82-23.27-13.36-15.65,11.83-45.41,39.3-72.88,72.49q13.76-44,28.62-88.15c2.7-7.63,3-10.68,3-12.21,0-6.1-21.73-15.63-28.6-16h0v.06c-24.85,64.13-88.93,198.37-153.4,198.37-8,0-14.49-1.91-19.07-5.34,56.85-36.25,111.41-91.57,111.41-144.22,0-9.91-1.91-18.7-13-35.12C1065.68,82.8,1060.34,79,1053.47,79,1018,79,930.23,185.82,930.23,257.17v4.57a322.3,322.3,0,0,1-31.22,18,12.92,12.92,0,0,1-15.7-3.21,17.64,17.64,0,0,1-1.15-1.41c30.9-40,55.32-101.86,55.32-143.07,0-10.69-1.91-19.46-12.21-34.72-9.9-14.5-16-18.32-22.12-18.32-16.41,0-43.51,24-69.45,59.52l27.47-90.8c2.29-7.64,3.06-10.69,3.06-12.22,0-6.1-23.66-15.64-30.53-16-27.09,88.88-52.65,177.77-75.89,266.67-1.91,7.64-2.71,10.69-2.71,12.21,0,6.11,21,15.26,28.62,16,1.52-5.73,3-11.45,5-17.17,10.68,11.44,26,16.4,37,16.4,11.45,0,23.65-6.1,35.48-16a71.13,71.13,0,0,0,7.39,7.34l.6.52.29.23c.3.23.58.46.9.69,1,.67,2,1.31,3,1.9,5.54,3.31,10.31,5,14.52,5v-.17c1.13.11,2.27.17,3.4.17,11.83,0,26-6.1,50.37-19.08l5.72,5.72c10.69,8.78,25.56,13.36,43.11,13.36,44.66,0,79.31-32.19,108.06-73.47q-7,23.19-13.8,46.38c-2.29,7.64-3,10.69-3,12.21,0,6.11,21.36,15.26,29,16,23.27-51.13,45.78-82.8,79-117.9l-30.92,89.28c-1.14,3.82-1.91,6.87-1.91,8.39,0,3.06.39,3.44,13,12.22,6.87,4.57,12.61,6.86,17.55,6.86,19.08,0,79.36-49.22,70.59-67.15C1256.07,242.3,1248.82,237,1237.38,231.23ZM822.64,278.54c-6.1,0-14.88-4.58-21.75-14.49,25.56-62.2,67.15-123.25,107.6-151.87a31.26,31.26,0,0,1,.37,6.11C908.86,170.56,852,278.54,822.64,278.54Zm236.18-166.73c0,2.7.37,5.71.37,8.39,0,44.26-43.49,91.57-91.57,123.62C975.64,207.57,1020.66,143.06,1058.82,111.81Z"/><path class="cls-1" d="M1740.25,231.23c-8.77,16-22.89,30.91-37.39,40.83l43.48-161.42c1.53-5,2.3-8.77,2.3-10.3,0-8.77-24.43-17.55-31.3-17.93-11.46,29-84.49,142.48-128.1,186.86a11.16,11.16,0,0,1-15.77.14,11.4,11.4,0,0,1-.81-.89A93.75,93.75,0,0,1,1558.25,245c53.8-48.84,122.87-145.37,122.87-199.55,0-14.88-4.59-25.95-12.61-37C1663.93,1.9,1659.35,0,1653.63,0c-53,0-137.77,130.87-137.77,214.43a111.28,111.28,0,0,0,1.53,19.46c-12.21,13-25.57,25.94-38.16,35.48q-3.06,2.4-6.12,4.5a6.93,6.93,0,0,1-10.6-7.58c2.39-8.52,6-16.53,9.85-24.8l12.21-27.09a12.58,12.58,0,0,0,1.52-5.35c0-2.29-1.9-5.72-5.71-9.53l-.39-.77c9.54-24,15.65-47.73,15.65-66.76,0-10.69-1.91-19.46-12.21-34.73-9.91-14.49-16-18.31-22.14-18.31-34.71,0-124.38,122.1-124.38,184.66,0,16.41,6.1,28.24,21,38.54,9.16,6.11,19.46,10.31,27.47,10.31,12.21,0,26.33-9.55,40.45-24.8a46.82,46.82,0,0,0,12.6,16.33,22.64,22.64,0,0,0,3,2.36c6.18,4.21,13.06,6.91,19.54,6.91,14.88,0,41.21-19.08,67.92-45a107.5,107.5,0,0,0,33.42,38l.15.12c8.77,6.1,13,6.87,16,6.87,24.8,0,72.11-59.15,107.21-116.37L1662.4,282c-1.53,6.11-2.29,9.16-2.29,11.07,0,3.43,5.72,8.78,12.6,13.36s12.61,6.87,17.56,6.87c19.07,0,79.36-49.22,70.58-67.15C1758.93,242.3,1751.68,237,1740.25,231.23Zm-369,51.89c.38-54.56,52.65-136.21,95.38-170.55a28.87,28.87,0,0,1,.39,5.72C1467.06,168.28,1414,281.21,1371.29,283.12ZM1658.21,26.34v.77C1651,77.85,1600.58,152.27,1551.76,203c4.2-57.61,53.8-138.12,106.45-176.65Z"/><path class="cls-2" d="M1734.52,17.57,1728,39.32c-2.28,7.62-3,11.06-3,12.21,0,5.71,16,13.73,32.06,17.55l6.48-21.75c2.29-7.64,3-11.07,3-12.21C1766.56,29.39,1750.54,21.39,1734.52,17.57Z"/></g></g></svg>